<?xml version="1.0" standalone="no"?>
<!DOCTYPE svg PUBLIC "-//W3C//DTD SVG 20010904//EN"
 "http://www.w3.org/TR/2001/REC-SVG-20010904/DTD/svg10.dtd">
<svg version="1.0" xmlns="http://www.w3.org/2000/svg"
 width="720.000000pt" height="405.000000pt" viewBox="0 0 720.000000 405.000000"
 preserveAspectRatio="xMidYMid meet">
<metadata>
Created by potrace 1.15, written by Peter Selinger 2001-2017
</metadata>
<g transform="translate(0.000000,405.000000) scale(0.100000,-0.100000)"
fill="#000000" stroke="none">
<path d="M2282 2618 c-15 -19 -97 -432 -89 -451 5 -15 23 -17 126 -17 111 0
121 2 131 20 6 12 10 33 8 48 -3 26 -5 27 -70 30 -43 2 -68 7 -68 14 0 7 14
84 32 173 17 89 29 169 25 178 -8 21 -79 24 -95 5z m78 -21 c0 -8 -16 -92 -35
-187 -19 -95 -35 -175 -35 -177 0 -2 34 -3 76 -3 l75 0 -3 -27 -3 -28 -112 -3
c-87 -2 -113 0 -113 10 0 15 78 396 85 416 6 17 65 16 65 -1z"/>
<path d="M2777 2609 c-50 -26 -77 -72 -77 -131 0 -55 26 -92 95 -133 33 -19
45 -32 45 -50 0 -53 -67 -72 -136 -39 -43 21 -60 14 -68 -27 -8 -40 10 -62 63
-77 80 -25 155 -8 214 47 34 32 40 45 44 87 7 66 -14 105 -71 139 -23 14 -51
34 -61 45 -16 18 -17 21 -1 45 20 30 61 33 108 9 30 -15 32 -15 45 2 21 29 12
76 -17 91 -39 20 -139 15 -183 -8z m168 -9 c20 -7 26 -16 23 -33 -3 -23 -6
-23 -70 -10 -41 8 -76 -4 -94 -33 -24 -35 -7 -65 60 -109 31 -21 59 -49 66
-66 41 -98 -70 -204 -194 -184 -60 10 -85 28 -79 59 6 30 9 30 43 11 38 -22
112 -19 138 5 24 23 29 68 10 92 -7 8 -30 25 -50 37 -21 12 -47 34 -58 48 -41
53 -15 143 51 176 38 19 114 22 154 7z"/>
<path d="M3325 2609 c-55 -27 -88 -61 -121 -127 -26 -51 -29 -67 -29 -152 0
-79 3 -99 20 -122 46 -62 140 -82 230 -51 44 16 51 22 59 54 5 20 6 44 3 53
-5 14 -11 13 -49 -4 -55 -25 -89 -25 -122 1 -22 17 -26 29 -26 68 0 110 63
201 138 201 21 0 47 -7 58 -15 42 -31 64 -14 64 50 0 27 -5 35 -34 49 -47 22
-141 20 -191 -5z m174 -10 c25 -9 31 -16 31 -39 0 -30 -14 -47 -25 -31 -3 6
-21 15 -40 20 -51 14 -98 -3 -138 -49 -40 -47 -57 -98 -57 -169 0 -45 4 -57
29 -82 34 -33 79 -38 136 -15 32 14 35 13 35 -2 -1 -42 -45 -66 -125 -66 -106
0 -155 49 -155 156 0 196 151 332 309 277z"/>
</g>
</svg>
